<?xml version="1.0" encoding="UTF-8" standalone="no"?>
<!DOCTYPE svg PUBLIC "-//W3C//DTD SVG 1.1//EN"
 "http://www.w3.org/Graphics/SVG/1.1/DTD/svg11.dtd">
<!-- Generated by graphviz version 7.0.4 (20221203.1631)
 -->
<!-- Pages: 1 -->
<svg width="503pt" height="231pt"
 viewBox="0.00 0.00 503.16 231.00" xmlns="http://www.w3.org/2000/svg" xmlns:xlink="http://www.w3.org/1999/xlink">
<g id="graph0" class="graph" transform="scale(1 1) rotate(0) translate(4 227)">
<polygon fill="#333333" stroke="none" points="-4,4 -4,-227 499.16,-227 499.16,4 -4,4"/>
<text text-anchor="middle" x="247.58" y="-9.2" font-family="Times New Roman,serif" font-size="16.00" fill="white">Network Map</text>
<!-- R6 -->
<g id="node1" class="node">
<title>R6</title>
<polygon fill="#006699" stroke="#006699" points="87.66,-223 10.66,-223 10.66,-150 87.66,-150 87.66,-223"/>
<text text-anchor="middle" x="49.16" y="-182.8" font-family="Helvetica,sans-Serif" font-size="14.00" fill="white">R6</text>
</g>
<!-- SW -->
<g id="node2" class="node">
<title>SW</title>
<polygon fill="#006699" stroke="#006699" points="274.66,-99 191.66,-99 191.66,-26 274.66,-26 274.66,-99"/>
<text text-anchor="middle" x="233.16" y="-58.8" font-family="Helvetica,sans-Serif" font-size="14.00" fill="white">SW</text>
</g>
<!-- SW&#45;&#45;R6 -->
<g id="edge4" class="edge">
<title>SW&#45;&#45;R6</title>
<path fill="none" stroke="green" stroke-dasharray="5,2" d="M191.5,-65.3C152.92,-69.28 96.74,-81.32 64.16,-117 56.04,-125.9 51.95,-138.16 50,-149.85"/>
<text text-anchor="middle" x="114.16" y="-120.8" font-family="Courier,monospace" font-size="14.00" fill="white"> &#160;&#160;&#160;&#160;&#160;&#160;&#160;&#160;&#160;&#160;&#160;</text>
<text text-anchor="middle" x="25" y="-138.65" font-family="Courier,monospace" font-size="14.00" fill="white">Eth0/1</text>
<text text-anchor="middle" x="166.5" y="-54.1" font-family="Courier,monospace" font-size="14.00" fill="white">Eth0/5</text>
</g>
<!-- R2 -->
<g id="node3" class="node">
<title>R2</title>
<polygon fill="#006699" stroke="#006699" points="210.66,-223 133.66,-223 133.66,-150 210.66,-150 210.66,-223"/>
<text text-anchor="middle" x="172.16" y="-182.8" font-family="Helvetica,sans-Serif" font-size="14.00" fill="white">R2</text>
</g>
<!-- SW&#45;&#45;R2 -->
<g id="edge2" class="edge">
<title>SW&#45;&#45;R2</title>
<path fill="none" stroke="green" stroke-dasharray="5,2" d="M191.2,-92.52C183.91,-99.63 177.34,-107.86 173.16,-117 168.57,-127.06 167.18,-138.85 167.27,-149.79"/>
<text text-anchor="middle" x="223.16" y="-120.8" font-family="Courier,monospace" font-size="14.00" fill="white"> &#160;&#160;&#160;&#160;&#160;&#160;&#160;&#160;&#160;&#160;&#160;</text>
<text text-anchor="middle" x="142.27" y="-138.59" font-family="Courier,monospace" font-size="14.00" fill="white">Eth0/0</text>
<text text-anchor="middle" x="166.2" y="-81.32" font-family="Courier,monospace" font-size="14.00" fill="white">Eth0/2</text>
</g>
<!-- R1 -->
<g id="node4" class="node">
<title>R1</title>
<polygon fill="#006699" stroke="#006699" points="333.66,-223 256.66,-223 256.66,-150 333.66,-150 333.66,-223"/>
<text text-anchor="middle" x="295.16" y="-182.8" font-family="Helvetica,sans-Serif" font-size="14.00" fill="white">R1</text>
</g>
<!-- SW&#45;&#45;R1 -->
<g id="edge1" class="edge">
<title>SW&#45;&#45;R1</title>
<path fill="none" stroke="green" stroke-dasharray="5,2" d="M262.4,-99.28C266.34,-105.01 270.08,-111.02 273.16,-117 278.43,-127.21 282.76,-138.93 286.13,-149.75"/>
<text text-anchor="middle" x="329.16" y="-120.8" font-family="Courier,monospace" font-size="14.00" fill="white"> &#160;&#160;&#160;&#160;&#160;&#160;&#160;&#160;&#160;&#160;&#160;</text>
<text text-anchor="middle" x="261.13" y="-138.55" font-family="Courier,monospace" font-size="14.00" fill="white">Eth0/0</text>
<text text-anchor="middle" x="237.4" y="-103.08" font-family="Courier,monospace" font-size="14.00" fill="white">Eth0/1</text>
</g>
<!-- R3 -->
<g id="node5" class="node">
<title>R3</title>
<polygon fill="#006699" stroke="#006699" points="456.66,-223 379.66,-223 379.66,-150 456.66,-150 456.66,-223"/>
<text text-anchor="middle" x="418.16" y="-182.8" font-family="Helvetica,sans-Serif" font-size="14.00" fill="white">R3</text>
</g>
<!-- SW&#45;&#45;R3 -->
<g id="edge3" class="edge">
<title>SW&#45;&#45;R3</title>
<path fill="none" stroke="green" stroke-dasharray="5,2" d="M274.98,-69.75C307.7,-76.52 352.62,-90.18 383.16,-117 393.1,-125.72 400.58,-137.94 406.03,-149.65"/>
<text text-anchor="middle" x="445.16" y="-120.8" font-family="Courier,monospace" font-size="14.00" fill="white"> &#160;&#160;&#160;&#160;&#160;&#160;&#160;&#160;&#160;&#160;&#160;</text>
<text text-anchor="middle" x="381.03" y="-138.45" font-family="Courier,monospace" font-size="14.00" fill="white">Eth0/0</text>
<text text-anchor="middle" x="299.98" y="-58.55" font-family="Courier,monospace" font-size="14.00" fill="white">Eth0/3</text>
</g>
</g>
</svg>
